<?xml version="1.0" standalone="no"?>
<!DOCTYPE svg PUBLIC "-//W3C//DTD SVG 20010904//EN"
 "http://www.w3.org/TR/2001/REC-SVG-20010904/DTD/svg10.dtd">
<svg version="1.0" xmlns="http://www.w3.org/2000/svg"
 width="570.000000pt" height="570.000000pt" viewBox="0 0 570.000000 570.000000"
 preserveAspectRatio="xMidYMid meet">
<metadata>
Created by potrace 1.14, written by Peter Selinger 2001-2017
</metadata>
<g transform="translate(0.000000,570.000000) scale(0.100000,-0.100000)"
fill="#000000" stroke="none">
<path d="M209 5409 c-97 -15 -176 -82 -199 -168 -21 -80 7 -187 62 -238 13
-12 46 -32 73 -45 48 -22 62 -23 292 -24 255 -1 284 -6 315 -48 17 -24 66
-246 95 -431 2 -16 8 -46 13 -65 5 -19 12 -55 15 -80 4 -24 8 -47 10 -50 2 -3
6 -26 10 -50 3 -25 8 -52 10 -60 2 -8 7 -31 10 -50 3 -19 12 -66 20 -105 8
-38 17 -88 21 -110 3 -22 7 -42 9 -45 2 -3 6 -26 10 -50 4 -25 20 -112 36
-195 16 -82 41 -211 55 -285 31 -165 27 -141 75 -384 22 -110 42 -216 45 -235
3 -18 8 -43 10 -55 6 -28 35 -175 41 -206 69 -382 121 -513 255 -652 60 -61
179 -138 238 -153 3 -1 12 -5 20 -8 8 -3 42 -14 75 -24 56 -16 162 -18 1555
-20 1465 -3 1496 -3 1560 16 111 34 170 116 166 232 -3 85 -46 158 -112 192
-76 39 -72 39 -1540 40 -782 0 -1450 4 -1485 9 -35 4 -84 18 -109 31 -37 18
-50 33 -77 87 -29 57 -53 142 -70 245 -2 17 -8 47 -13 68 l-8 37 1467 1 c806
0 1477 2 1491 5 14 2 36 6 50 8 142 22 286 95 392 198 84 82 133 161 173 283
12 36 141 494 179 635 98 363 203 766 210 804 1 6 5 20 9 31 3 11 9 34 12 50
3 17 8 41 11 55 30 134 -11 287 -100 375 -52 51 -96 75 -181 101 -57 17 -162
18 -2135 18 l-2075 -1 -30 46 c-90 140 -214 227 -376 265 -61 14 -499 18 -580
5z"/>
<path d="M1700 1248 c-84 -10 -165 -45 -228 -96 -72 -59 -95 -85 -131 -152
-76 -142 -78 -302 -6 -445 89 -177 255 -274 448 -263 244 15 447 236 447 488
0 52 -26 147 -57 210 -57 114 -195 222 -318 248 -79 17 -96 18 -155 10z"/>
<path d="M4549 1246 c-4 -4 -18 -9 -32 -11 -62 -12 -169 -77 -224 -138 -104
-115 -149 -274 -117 -423 43 -206 222 -368 424 -381 147 -10 257 32 365 141
76 77 106 128 130 221 59 232 -68 474 -296 566 -54 21 -236 39 -250 25z"/>
</g>
</svg>
